<?xml version="1.0" encoding="iso-8859-1"?>
<!-- Generator: Adobe Illustrator 19.0.0, SVG Export Plug-In . SVG Version: 6.00 Build 0)  -->
<svg version="1.1" id="Layer_1" xmlns="http://www.w3.org/2000/svg" xmlns:xlink="http://www.w3.org/1999/xlink" x="0px" y="0px"
	 viewBox="0 0 512 512" style="enable-background:new 0 0 512 512;" xml:space="preserve">
<path style="fill:#FF3D63;" d="M482.064,244.726c0,33.667-6.708,66.288-19.958,96.967l-3.96,9.185H342.288l-73.77-53.488
	L110.864,183.066L29.936,114.04l8.108-11.358c22.183-31.075,51.733-56.884,85.452-74.637C158.344,9.697,197.705,0,237.338,0
	c10.512,0,20.919,0.658,31.18,1.964c34.617,4.368,67.542,15.997,96.977,34.158c0.846,0.522,1.693,1.055,2.539,1.588
	c0.711,0.449,1.421,0.909,2.142,1.379c1.014,0.648,2.027,1.317,3.03,1.996c0.773,0.522,1.546,1.045,2.32,1.578
	c1.306,0.899,2.602,1.808,3.897,2.738c0.69,0.491,1.369,0.982,2.048,1.484c1.358,0.993,2.706,2.006,4.054,3.03
	c1.348,1.014,2.675,2.058,3.992,3.114c0.669,0.533,1.337,1.076,2.017,1.62c0.637,0.522,1.275,1.055,1.912,1.578
	c0.658,0.543,1.306,1.087,1.954,1.64c5.162,4.378,10.167,8.986,14.994,13.814C456.61,117.906,482.064,179.357,482.064,244.726z"/>
<path style="fill:#FF0335;" d="M482.064,244.726c0,33.667-6.708,66.288-19.958,96.967l-3.96,9.185H342.288l-73.77-53.488V1.964
	c34.617,4.368,67.542,15.997,96.977,34.158c0.846,0.522,1.693,1.055,2.539,1.588c0.711,0.449,1.421,0.909,2.142,1.379
	c1.014,0.648,2.027,1.317,3.03,1.996c0.773,0.522,1.546,1.045,2.32,1.578c1.306,0.899,2.602,1.808,3.897,2.738
	c0.69,0.491,1.369,0.982,2.048,1.484c1.358,0.993,2.706,2.006,4.054,3.03c1.337,1.024,2.664,2.058,3.992,3.114
	c0.669,0.533,1.337,1.076,2.017,1.62c0.637,0.522,1.275,1.055,1.912,1.578c0.658,0.543,1.306,1.087,1.954,1.64
	c5.162,4.378,10.167,8.986,14.994,13.814C456.61,117.906,482.064,179.357,482.064,244.726z"/>
<path style="fill:#8A6746;" d="M233.326,270.932c-2.675,0.021-5.945,0.303-9.467,0.627c-9.226,0.857-20.187,2.006-26.624-0.627
	c-1.379-0.564-48.222-22.016-121.48-8.923c-4.952,0.883-21.943,5.486-21.943,5.486l67.699-95.817l6.886-9.613
	c0.094-0.115,0.199-0.23,0.313-0.345c4.263-3.772,28.787,6.353,32.622,8.108c10.825,4.953,20.783,11.766,29.686,19.623
	c15.673,13.845,28.641,31.441,35.161,51.399c0.878,2.675,1.63,5.392,2.267,8.14C228.968,251.267,231.414,270.932,233.326,270.932z"
	/>
<path style="fill:#DFCCBE;" d="M223.859,271.559l0.648-12.842c-9.206-36.676-37.23-70.855-102.996-87.04l6.886-9.613
	c0.094-0.115,0.199-0.23,0.313-0.345c7.001-7.847,15.005-15.015,23.98-21.316c35.025-24.607,77.427-30.887,115.827-20.846
	c30.887,8.077,59.193,26.718,78.984,54.899c36.603,52.099,32.674,120.519-5.256,167.821v0.01l23.834,88.461l8.202,30.417
	l13.7,50.835H134.938l27.826-50.834l16.635-30.417l21.765-39.769c0,0,11.076-19.811,19.069-47.773L223.859,271.559z"/>
<path style="fill:#C9AD91;" d="M387.981,512H268.518V119.557c30.887,8.077,59.193,26.718,78.984,54.899
	c36.603,52.099,32.674,120.519-5.256,167.821v0.01l23.834,88.461l8.202,30.417L387.981,512z"/>
<polygon style="fill:#8A6746;" points="374.282,461.166 162.764,461.166 179.399,430.749 366.08,430.749 "/>
<polygon style="fill:#664B33;" points="374.282,461.166 268.518,461.166 268.518,430.749 366.08,430.749 "/>
<circle style="fill:#8A6746;" cx="227.21" cy="301.2" r="35.798"/>
<path style="fill:#664B33;" d="M227.212,265.404c-0.048,0-0.094,0.003-0.142,0.003v71.592c0.048,0,0.094,0.004,0.142,0.004
	c19.772,0,35.799-16.029,35.799-35.799C263.011,281.432,246.983,265.404,227.212,265.404z"/>
<g>
</g>
<g>
</g>
<g>
</g>
<g>
</g>
<g>
</g>
<g>
</g>
<g>
</g>
<g>
</g>
<g>
</g>
<g>
</g>
<g>
</g>
<g>
</g>
<g>
</g>
<g>
</g>
<g>
</g>
</svg>
