<?xml version="1.0" encoding="iso-8859-1"?>
<!-- Generator: Adobe Illustrator 19.0.0, SVG Export Plug-In . SVG Version: 6.00 Build 0)  -->
<svg version="1.1" id="Layer_1" xmlns="http://www.w3.org/2000/svg" xmlns:xlink="http://www.w3.org/1999/xlink" x="0px" y="0px"
	 viewBox="0 0 512.003 512.003" style="enable-background:new 0 0 512.003 512.003;" xml:space="preserve">
<g>
	<path style="fill:#48A0DC;" d="M256.002,348.139v16.341c0,19.17-15.542,34.712-34.712,34.712s-34.712-15.542-34.712-34.712v-16.341
		c-78.093,8.643-138.847,74.787-138.847,155.188l0,0H394.85l0,0C394.85,422.926,334.095,356.782,256.002,348.139"/>
	<path style="fill:#F6935E;" d="M221.29,303.731c-12.349,0-24.073-2.621-34.712-7.272v68.018c0,19.17,15.542,34.712,34.712,34.712
		s34.712-15.542,34.712-34.712v-68.018C245.363,301.111,233.639,303.731,221.29,303.731"/>
	<path style="fill:#FEC24C;" d="M385.129,101.211c-38.131-21.634-71.923-49.612-104.031-79.464C266.796,8.461,245.327,0,221.289,0
		s-45.507,8.461-59.8,21.747c-32.117,29.852-65.909,57.83-104.04,79.464l-35.753,20.28h69.424h260.339h69.424L385.129,101.211z"/>
	<path style="fill:#FABA81;" d="M138.496,121.494c-2.586,8.218-3.983,16.965-3.983,26.034v69.424c0,47.928,38.851,86.78,86.78,86.78
		s86.78-38.851,86.78-86.78v-69.424c0-9.068-1.406-17.816-3.983-26.034H138.496z"/>
	<g>
		<path style="fill:#C9C3A7;" d="M290.714,442.579c-4.799,0-8.678-3.888-8.678-8.678v-78.102c0-4.79,3.879-8.678,8.678-8.678
			c4.799,0,8.678,3.888,8.678,8.678v78.102C299.392,438.691,295.513,442.579,290.714,442.579"/>
		<path style="fill:#C9C3A7;" d="M151.867,442.579c-4.799,0-8.678-3.888-8.678-8.678v-78.102c0-4.79,3.879-8.678,8.678-8.678
			s8.678,3.888,8.678,8.678v78.102C160.545,438.691,156.665,442.579,151.867,442.579"/>
	</g>
	<g>
		<path style="fill:#F6935E;" d="M316.748,156.206c-3.063,0-5.953,0.625-8.678,1.597v48.874c2.725,0.972,5.615,1.597,8.678,1.597
			c14.379,0,26.034-11.655,26.034-26.034C342.782,167.861,331.127,156.206,316.748,156.206"/>
		<path style="fill:#F6935E;" d="M125.833,208.274c3.063,0,5.953-0.625,8.678-1.597v-48.874c-2.725-0.972-5.615-1.597-8.678-1.597
			c-14.379,0-26.034,11.655-26.034,26.034C99.799,196.619,111.453,208.274,125.833,208.274"/>
	</g>
	<g>
		<path style="fill:#E0E0E0;" d="M429.561,512.003c-4.799,0-8.678-3.888-8.678-8.678V364.477c0-4.79,3.879-8.678,8.678-8.678
			s8.678,3.888,8.678,8.678v138.847C438.239,508.115,434.36,512.003,429.561,512.003"/>
		<path style="fill:#E0E0E0;" d="M429.561,373.155c-33.488,0-60.746-27.249-60.746-60.746v-69.424c0-4.79,3.879-8.678,8.678-8.678
			c4.799,0,8.678,3.888,8.678,8.678v69.424c0,23.925,19.465,43.39,43.39,43.39s43.39-19.465,43.39-43.39v-69.424
			c0-4.79,3.879-8.678,8.678-8.678c4.799,0,8.678,3.888,8.678,8.678v69.424C490.307,345.906,463.05,373.155,429.561,373.155"/>
		<path style="fill:#E0E0E0;" d="M412.206,364.477c-4.79,0-8.669-3.879-8.678-8.669l-0.113-104.136
			c-0.009-4.79,3.879-8.687,8.669-8.687h0.009c4.79,0,8.669,3.879,8.678,8.669l0.113,104.136c0.009,4.79-3.87,8.687-8.669,8.687
			H412.206z"/>
		<path style="fill:#E0E0E0;" d="M447.028,364.477c-4.79,0-8.669-3.879-8.678-8.669l-0.113-104.136
			c-0.009-4.79,3.879-8.687,8.669-8.687h0.009c4.79,0,8.669,3.879,8.678,8.669l0.113,104.136c0.009,4.79-3.87,8.687-8.669,8.687
			H447.028z"/>
	</g>
	<path style="fill:#4CAF50;" d="M299.392,95.46c-4.799,0-8.678-3.888-8.678-8.678c0-43.06,35.033-78.102,78.102-78.102
		c4.799,0,8.678,3.888,8.678,8.678s-3.879,8.678-8.678,8.678c-33.488,0-60.746,27.249-60.746,60.746
		C308.07,91.573,304.191,95.46,299.392,95.46"/>
	<polygon style="fill:#ECE8D8;" points="125.833,503.325 316.748,503.325 316.748,433.901 125.833,433.901 	"/>
	<path style="fill:#C9C3A7;" d="M169.223,477.291c-4.79,0-8.669-3.879-8.678-8.669c-0.009-4.79,3.87-8.687,8.669-8.687
		l104.136-0.113h0.009c4.79,0,8.669,3.879,8.678,8.669c0.009,4.799-3.87,8.687-8.669,8.687l-104.136,0.113H169.223z"/>
</g>
<g>
</g>
<g>
</g>
<g>
</g>
<g>
</g>
<g>
</g>
<g>
</g>
<g>
</g>
<g>
</g>
<g>
</g>
<g>
</g>
<g>
</g>
<g>
</g>
<g>
</g>
<g>
</g>
<g>
</g>
</svg>
