<?xml version="1.0" encoding="iso-8859-1"?>
<!-- Generator: Adobe Illustrator 19.0.0, SVG Export Plug-In . SVG Version: 6.00 Build 0)  -->
<svg version="1.1" id="Layer_1" xmlns="http://www.w3.org/2000/svg" xmlns:xlink="http://www.w3.org/1999/xlink" x="0px" y="0px"
	 viewBox="0 0 512 512" style="enable-background:new 0 0 512 512;" xml:space="preserve">
<g>
	<rect y="225.959" style="fill:#C8DA2E;" width="512" height="276.898"/>
	<rect y="225.959" style="fill:#C8DA2E;" width="512" height="94.041"/>
</g>
<rect y="320" style="fill:#7AC943;" width="512" height="94.041"/>
<path style="fill:#FFD248;" d="M256,16.98c31.765,0,57.469,25.704,57.469,57.469S287.765,131.918,256,131.918
	s-57.469-25.704-57.469-57.469S224.235,16.98,256,16.98z"/>
<polygon points="277.226,256.412 256,273.393 234.774,256.412 224.981,268.65 256,293.464 287.019,268.65 "/>
<polygon points="172.736,256.412 151.51,273.393 130.284,256.412 120.491,268.65 151.51,293.464 182.529,268.65 "/>
<polygon points="68.246,256.412 47.02,273.393 25.794,256.412 16.002,268.65 47.02,293.464 78.039,268.65 "/>
<polygon points="381.716,256.412 360.49,273.393 339.264,256.412 329.471,268.65 360.49,293.464 391.509,268.65 "/>
<polygon points="486.206,256.412 464.98,273.393 443.754,256.412 433.961,268.65 464.98,293.464 495.998,268.65 "/>
<polygon points="277.226,350.453 256,367.434 234.774,350.453 224.981,362.69 256,387.505 287.019,362.69 "/>
<polygon points="172.736,350.453 151.51,367.434 130.284,350.453 120.491,362.69 151.51,387.505 182.529,362.69 "/>
<polygon points="68.246,350.453 47.02,367.434 25.794,350.453 16.002,362.69 47.02,387.505 78.039,362.69 "/>
<polygon points="381.716,350.453 360.49,367.434 339.264,350.453 329.471,362.69 360.49,387.505 391.509,362.69 "/>
<polygon points="486.206,350.453 464.98,367.434 443.754,350.453 433.961,362.69 464.98,387.505 495.998,362.69 "/>
<polygon points="256,461.475 234.774,444.493 224.981,456.731 256,481.545 287.019,456.731 277.226,444.493 "/>
<polygon points="151.51,461.475 130.284,444.493 120.491,456.731 151.51,481.545 182.529,456.731 172.736,444.493 "/>
<polygon points="47.02,461.475 25.794,444.493 16.002,456.731 47.02,481.545 78.039,456.731 68.246,444.493 "/>
<polygon points="360.49,461.475 339.264,444.493 329.471,456.731 360.49,481.545 391.509,456.731 381.716,444.493 "/>
<polygon points="464.98,461.475 443.754,444.493 433.961,456.731 464.98,481.545 495.998,456.731 486.206,444.493 "/>
<rect y="406.204" width="512" height="15.673"/>
<rect y="312.163" width="512" height="15.673"/>
<path d="M512,181.551v-15.673H0v15.673h39.184v36.571H0v15.673h512v-15.673h-39.184v-36.571H512z M263.837,181.551h88.816v36.571
	h-88.816V181.551z M248.163,218.122h-88.816v-36.571h88.816V218.122z M54.857,181.551h88.816v36.571H54.857V181.551z
	 M457.143,218.122h-88.816v-36.571h88.816V218.122z"/>
<path d="M256,139.755c36.01,0,65.306-29.297,65.306-65.306S292.01,9.143,256,9.143s-65.306,29.297-65.306,65.306
	S219.99,139.755,256,139.755z M256,24.816c27.367,0,49.633,22.266,49.633,49.633S283.367,124.082,256,124.082
	s-49.633-22.266-49.633-49.633S228.633,24.816,256,24.816z"/>
<path d="M399.673,79.673h15.673c0-5.186,4.472-9.757,13.292-13.59c8.089-3.514,16.479-4.765,16.563-4.776l-1.12-7.756l-1.109-7.758
	c-10.65,1.521-26.185,6.3-35.463,15.703c-9.279-9.403-24.813-14.181-35.463-15.703l-2.216,15.517
	C376.135,62.21,399.673,67.965,399.673,79.673z"/>
<path d="M75.755,111.02h15.673c0-5.186,4.472-9.757,13.292-13.59c8.089-3.514,16.479-4.765,16.563-4.776l-1.12-7.756l-1.109-7.758
	c-10.65,1.521-26.184,6.3-35.463,15.703c-9.279-9.403-24.813-14.181-35.463-15.703l-2.216,15.517
	C52.217,93.557,75.755,99.312,75.755,111.02z"/>
<g>
</g>
<g>
</g>
<g>
</g>
<g>
</g>
<g>
</g>
<g>
</g>
<g>
</g>
<g>
</g>
<g>
</g>
<g>
</g>
<g>
</g>
<g>
</g>
<g>
</g>
<g>
</g>
<g>
</g>
</svg>
