<?xml version="1.0" encoding="iso-8859-1"?>
<!-- Generator: Adobe Illustrator 18.0.0, SVG Export Plug-In . SVG Version: 6.00 Build 0)  -->
<!DOCTYPE svg PUBLIC "-//W3C//DTD SVG 1.1//EN" "http://www.w3.org/Graphics/SVG/1.1/DTD/svg11.dtd">
<svg version="1.1" id="Capa_1" xmlns="http://www.w3.org/2000/svg" xmlns:xlink="http://www.w3.org/1999/xlink" x="0px" y="0px"
	 viewBox="0 0 462.335 462.335" style="enable-background:new 0 0 462.335 462.335;" xml:space="preserve">
<g id="XMLID_33_">
	<g>
		
			<rect x="69.871" y="106.441" transform="matrix(0.7071 -0.7071 0.7071 0.7071 -54.9602 87.168)" style="fill:#E29E30;" width="15.74" height="6.972"/>
		<polygon style="fill:#E29E30;" points="392.631,113.027 387.691,117.957 376.561,106.827 381.491,101.897 		"/>
		<polygon style="fill:#CCCCCC;" points="384.061,155.377 426.941,219.097 363.221,176.217 		"/>
		<polygon style="fill:#CCCCCC;" points="339.141,110.457 318.301,131.287 275.431,67.577 		"/>
		<polygon style="fill:#CCCCCC;" points="186.911,67.577 144.031,131.287 123.201,110.457 		"/>
		<polygon style="fill:#CCCCCC;" points="99.111,176.217 35.391,219.097 78.271,155.377 		"/>
		<polygon style="fill:#999999;" points="359.671,111.147 383.371,134.857 342.701,175.527 318.991,151.817 		"/>
		
			<rect x="94.385" y="114.579" transform="matrix(0.7071 -0.7071 0.7071 0.7071 -68.799 120.578)" style="fill:#999999;" width="33.531" height="57.516"/>
		<polygon style="fill:#C6862A;" points="220.561,241.607 209.431,252.747 136.531,179.837 147.661,168.707 		"/>
		<polygon style="fill:#C6862A;" points="379.611,400.657 368.481,411.797 241.771,285.087 252.911,273.957 		"/>
		<polygon style="fill:#E29E30;" points="325.811,179.847 93.861,411.787 82.731,400.657 314.671,168.707 		"/>
		<path style="fill:#4D4D4D;" d="M460.811,242.547c2,2.98,1.61,6.96-0.92,9.49c-1.45,1.45-3.37,2.2-5.31,2.2
			c-1.45,0-2.91-0.42-4.18-1.28l-97.98-65.94l-4.41,4.42c-1.41,1.4-3.32,2.19-5.31,2.19c-1.99,0-3.89-0.79-5.3-2.19l-0.98-0.99
			l-72.91,72.9l132.01,132.01c1.41,1.4,2.2,3.31,2.2,5.3c0,1.99-0.79,3.9-2.2,5.3l-21.74,21.75c-1.46,1.46-3.38,2.19-5.3,2.19
			c-1.92,0-3.84-0.73-5.31-2.19l-132-132.01l-132.01,132c-1.46,1.47-3.38,2.2-5.3,2.2c-1.92,0-3.84-0.73-5.3-2.2l-21.74-21.74
			c-1.41-1.4-2.2-3.31-2.2-5.3c0-1.99,0.79-3.9,2.2-5.3l132-132.01l-72.9-72.9l-0.99,0.99c-1.4,1.4-3.31,2.19-5.3,2.19
			s-3.9-0.79-5.3-2.19l-4.41-4.42l-97.98,65.94c-1.28,0.86-2.74,1.28-4.19,1.28c-1.93,0-3.85-0.75-5.3-2.2
			c-2.54-2.53-2.93-6.51-0.92-9.49l65.94-97.98l-4.42-4.41c-1.41-1.41-2.2-3.32-2.2-5.3c0-1.99,0.79-3.9,2.2-5.31l0.98-0.98
			l-10.23-10.24c-1.41-1.4-2.2-3.31-2.2-5.3c0-1.99,0.79-3.9,2.2-5.3l21.74-21.74c2.93-2.93,7.68-2.93,10.6,0l10.24,10.23l0.99-0.98
			c2.92-2.93,7.67-2.93,10.6,0l4.42,4.41l97.97-65.93c2.98-2.01,6.96-1.62,9.49,0.92c2.54,2.53,2.92,6.51,0.92,9.49l-65.93,97.97
			l4.41,4.41c2.93,2.93,2.93,7.68,0,10.61l-0.98,0.98l72.9,72.91l72.9-72.9l-0.99-0.99c-2.92-2.93-2.92-7.68,0-10.61l4.42-4.41
			l-65.94-97.97c-2-2.98-1.62-6.96,0.92-9.49c2.54-2.54,6.51-2.93,9.49-0.92l97.98,65.93l4.41-4.41c2.93-2.93,7.68-2.93,10.61,0
			l0.98,0.98l10.24-10.23c2.93-2.93,7.68-2.93,10.61,0l21.74,21.74c1.4,1.4,2.19,3.31,2.19,5.3c0,1.99-0.79,3.9-2.19,5.3
			l-10.24,10.24l0.98,0.98c2.93,2.93,2.93,7.68,0,10.61l-4.41,4.41L460.811,242.547z M426.941,219.097l-42.88-63.72l-20.84,20.84
			L426.941,219.097z M387.691,117.957l4.94-4.93l-11.14-11.13l-4.93,4.93L387.691,117.957z M383.371,134.857l-23.7-23.71
			l-40.68,40.67l23.71,23.71L383.371,134.857z M368.481,411.797l11.13-11.14l-126.7-126.7l-11.14,11.13L368.481,411.797z
			 M318.301,131.287l20.84-20.83l-63.71-42.88L318.301,131.287z M93.861,411.787l231.95-231.94l-11.14-11.14l-231.94,231.95
			L93.861,411.787z M209.431,252.747l11.13-11.14l-72.9-72.9l-11.13,11.13L209.431,252.747z M144.031,131.287l42.88-63.71
			l-63.71,42.88L144.031,131.287z M119.631,175.527l23.71-23.71l-40.67-40.67l-23.71,23.71L119.631,175.527z M35.391,219.097
			l63.72-42.88l-20.84-20.84L35.391,219.097z M74.641,117.957l11.13-11.13l-4.93-4.93l-11.13,11.13L74.641,117.957z"/>
	</g>
	<g>
	</g>
</g>
<g>
</g>
<g>
</g>
<g>
</g>
<g>
</g>
<g>
</g>
<g>
</g>
<g>
</g>
<g>
</g>
<g>
</g>
<g>
</g>
<g>
</g>
<g>
</g>
<g>
</g>
<g>
</g>
<g>
</g>
</svg>
